<?xml version="1.0" encoding="utf-8"?>
<!-- Generator: Adobe Illustrator 24.3.0, SVG Export Plug-In . SVG Version: 6.00 Build 0)  -->
<svg version="1.1" id="Layer_1" xmlns="http://www.w3.org/2000/svg" xmlns:xlink="http://www.w3.org/1999/xlink" x="0px" y="0px"
	 viewBox="0 0 350.7 420" style="enable-background:new 0 0 350.7 420;" xml:space="preserve">
<style type="text/css">
	.st0{fill:#6F6F6F;}
	.st1{fill:#515151;}
	.st2{fill:#FF0313;}
</style>
<g>
	<path class="st0" d="M147.4,403.6H97.6c-45.3,0-82-36.8-82-82V98.4c0-45.3,36.8-82,82-82h49.8c-45.2,0-81.8,36.8-81.8,82v223.1
		C65.6,366.8,102.2,403.6,147.4,403.6z"/>
	<path class="st1" d="M249.4,420H98.4C44.1,420,0,375.9,0,321.6V98.4C0,44.1,44.1,0,98.4,0h150.9c54.3,0,98.4,44.1,98.4,98.4v223.1
		C347.8,375.9,303.7,420,249.4,420z M98.4,32.8c-36.2,0-65.6,29.4-65.6,65.6v223.1c0,36.2,29.4,65.6,65.6,65.6h150.9
		c36.2,0,65.6-29.4,65.6-65.6V98.4c0-36.2-29.4-65.6-65.6-65.6H98.4z"/>
	<path class="st2" d="M271.4,187.2H99.2c-7.5,0-13.5-6.1-13.5-13.5l0,0c0-7.5,6.1-13.5,13.5-13.5h172.3c7.5,0,13.5,6.1,13.5,13.5
		l0,0C285,181.1,278.9,187.2,271.4,187.2z"/>
	<path class="st2" d="M271.4,231.2H99.2c-7.5,0-13.5-6.1-13.5-13.5l0,0c0-7.5,6.1-13.5,13.5-13.5h172.3c7.5,0,13.5,6.1,13.5,13.5
		l0,0C285,225.2,278.9,231.2,271.4,231.2z"/>
	<path class="st2" d="M271.4,275.2H99.2c-7.5,0-13.5-6.1-13.5-13.5l0,0c0-7.5,6.1-13.5,13.5-13.5h172.3c7.5,0,13.5,6.1,13.5,13.5
		l0,0C285,269.2,278.9,275.2,271.4,275.2z"/>
	<path class="st2" d="M271.4,319.3H99.2c-7.5,0-13.5-6.1-13.5-13.5l0,0c0-7.5,6.1-13.5,13.5-13.5h172.3c7.5,0,13.5,6.1,13.5,13.5
		l0,0C285,313.2,278.9,319.3,271.4,319.3z"/>
	<path class="st2" d="M196.5,143.1H99.2c-7.5,0-13.5-6.1-13.5-13.5l0,0c0-7.5,6.1-13.5,13.5-13.5h97.4c7.5,0,13.5,6.1,13.5,13.5l0,0
		C210.1,137.2,204,143.1,196.5,143.1z"/>
</g>
</svg>
