<?xml version="1.0" encoding="utf-8"?>
<!-- Generator: Adobe Illustrator 24.3.0, SVG Export Plug-In . SVG Version: 6.00 Build 0)  -->
<svg version="1.1" id="Layer_1" xmlns="http://www.w3.org/2000/svg" xmlns:xlink="http://www.w3.org/1999/xlink" x="0px" y="0px"
	 viewBox="0 0 424 512" style="enable-background:new 0 0 424 512;" xml:space="preserve">
<style type="text/css">
	.st0{fill:#6F6F6F;}
	.st1{fill:#515151;}
	.st2{fill:#FF0313;}
</style>
<g>
	<path class="st0" d="M179.7,492H119c-55.2,0-100-44.8-100-100V120C19,64.8,63.8,20,119,20h60.7C124.6,20,80,64.8,80,120v272
		C80,447.2,124.6,492,179.7,492z"/>
	<path class="st1" d="M304,512H120C53.8,512,0,458.2,0,392V120C0,53.8,53.8,0,120,0h184c66.2,0,120,53.8,120,120v272
		C424,458.2,370.2,512,304,512z M120,40c-44.1,0-80,35.9-80,80v272c0,44.1,35.9,80,80,80h184c44.1,0,80-35.9,80-80V120
		c0-44.1-35.9-80-80-80H120z"/>
	<path class="st2" d="M330.9,228.2h-210c-9.1,0-16.5-7.4-16.5-16.5l0,0c0-9.1,7.4-16.5,16.5-16.5h210c9.1,0,16.5,7.4,16.5,16.5l0,0
		C347.4,220.8,340,228.2,330.9,228.2z"/>
	<path class="st2" d="M330.9,281.9h-210c-9.1,0-16.5-7.4-16.5-16.5l0,0c0-9.1,7.4-16.5,16.5-16.5h210c9.1,0,16.5,7.4,16.5,16.5l0,0
		C347.4,274.5,340,281.9,330.9,281.9z"/>
	<path class="st2" d="M330.9,335.5h-210c-9.1,0-16.5-7.4-16.5-16.5l0,0c0-9.1,7.4-16.5,16.5-16.5h210c9.1,0,16.5,7.4,16.5,16.5l0,0
		C347.4,328.2,340,335.5,330.9,335.5z"/>
	<path class="st2" d="M330.9,389.2h-210c-9.1,0-16.5-7.4-16.5-16.5l0,0c0-9.1,7.4-16.5,16.5-16.5h210c9.1,0,16.5,7.4,16.5,16.5l0,0
		C347.4,381.8,340,389.2,330.9,389.2z"/>
	<path class="st2" d="M239.6,174.5H120.9c-9.1,0-16.5-7.4-16.5-16.5l0,0c0-9.1,7.4-16.5,16.5-16.5h118.7c9.1,0,16.5,7.4,16.5,16.5
		l0,0C256.1,167.2,248.7,174.5,239.6,174.5z"/>
</g>
</svg>
