<?xml version="1.0" encoding="utf-8"?>
<!-- Generator: Adobe Illustrator 24.3.0, SVG Export Plug-In . SVG Version: 6.00 Build 0)  -->
<svg version="1.1" id="Layer_1" xmlns="http://www.w3.org/2000/svg" xmlns:xlink="http://www.w3.org/1999/xlink" x="0px" y="0px"
	 viewBox="0 0 512 442" style="enable-background:new 0 0 512 442;" xml:space="preserve">
<style type="text/css">
	.st0{fill:#6F6F6F;}
	.st1{fill:#515151;}
	.st2{fill:#D63447;}
</style>
<g>
	<path class="st0" d="M176.9,442c-67.2,0-121-57.1-121-127.2l-9.8-167.5c0-11.7,18.8-9.6,29.8-9.6s20,9.5,20,21.2v133.4
		c0,73.8,40.8,107.3,131.5,107.3"/>
	<path class="st0" d="M91.7,60c0,22.1,17.9,40,40,40h-60c-22.1,0-40-17.9-40-40s17.9-40,40-40h60C109.6,20,91.7,37.9,91.7,60z"/>
	<path class="st1" d="M0,60c0,33.1,26.9,60,60,60h392c33.1,0,60-26.9,60-60S485.1,0,452,0H60C26.9,0,0,26.9,0,60z M60,80
		c-11,0-20-9-20-20s9-20,20-20h392c11,0,20,9,20,20s-9,20-20,20H60z M315.4,442H161c-67.2,0-121-57.1-121-127.2V158.9
		c0-11.7,9-21.2,20-21.2s20,9.5,20,21.2v155.9c0,46.8,35.9,84.8,81,84.8h154.4H315h37c44.1,0,80-38.1,80-84.8V158.9
		c0-11.7,9-21.2,20-21.2s20,9.5,20,21.2v155.9C472,385,418.2,442,352,442h-37"/>
	<path class="st2" d="M387.2,272.7c0.9,0,1.8,0.2,2.7,0.5c2.6,1.1,4.4,3.7,4.4,6.5v39.2c0.1,12.5-4.7,24.3-13.5,33.2
		c-8.9,8.9-20.6,13.9-33.1,13.9c-12.6,0-24.4-4.9-33.2-13.8c-8.8-8.9-13.6-20.8-13.5-33.4c0.1-12.4,5.1-24.1,13.9-32.8
		c8.8-8.7,20.5-13.5,32.9-13.5l0,0c7.3,0,14.3,1.6,20.7,4.8c4.3,2.2,9.6,1.3,13-2.1l0.6-0.6C383.5,273.4,385.3,272.7,387.2,272.7
		L387.2,272.7z"/>
</g>
</svg>
