<?xml version="1.0" encoding="utf-8"?>
<!-- Generator: Adobe Illustrator 24.3.0, SVG Export Plug-In . SVG Version: 6.00 Build 0)  -->
<svg version="1.1" id="Layer_1" xmlns="http://www.w3.org/2000/svg" xmlns:xlink="http://www.w3.org/1999/xlink" x="0px" y="0px"
	 viewBox="0 0 313.5 259.6" style="enable-background:new 0 0 313.5 259.6;" xml:space="preserve">
<style type="text/css">
	.st0{fill:#6F6F6F;}
	.st1{fill:#515151;}
	.st2{fill:none;stroke:#6F6F6F;stroke-width:17.0079;stroke-miterlimit:10;}
	.st3{fill:none;stroke:#515151;stroke-width:25.5118;stroke-miterlimit:10;}
	.st4{fill:#FF0313;}
</style>
<g>
	<path class="st0" d="M114.5,235.1H77.3c-33.8,0-61.2-20-61.2-44.6V69.1c0-24.6,27.4-44.6,61.2-44.6h37.2c-33.7,0-61,20-61,44.6
		v121.4C53.4,215.1,80.8,235.1,114.5,235.1z"/>
	<path class="st1" d="M0,186.1V73.5C0,33,33,0,73.5,0H240c40.5,0,73.5,33,73.5,73.5v112.6c0,40.5-33,73.5-73.5,73.5H73.5
		C33,259.6,0,226.6,0,186.1z M289,73.5c0-27-22-49-49-49H73.5c-27,0-49,22-49,49v112.6c0,27,22,49,49,49H240c27,0,49-22,49-49V73.5z
		"/>
	<ellipse class="st2" cx="170.5" cy="136.9" rx="39.6" ry="50.5"/>
	<circle class="st3" cx="163" cy="135.2" r="52.1"/>
	<circle class="st4" cx="241.1" cy="60.8" r="17.4"/>
</g>
</svg>
